#!OML:ASF H:\Male1\Project 1\Capture day 1\Session 1\Male1.ASF
:FULLY-SPECIFIED
:DEGREES
572
root 20.1863 15.2676 -3.17085 304.605 87.2839 -53.3105
lowerback 3.21408 1.74946 -0.308596
upperback 2.70783 2.36982 -0.411939
thorax 0.980537 1.20276 -0.302943
lowerneck -4.32474 5.70032 10.6473
upperneck 1.32494 7.25268 -7.91766
head 1.77204 3.55132 -3.85107
rclavicle -1.1778e-014 -1.19271e-014
rhumerus -36.6576 4.11848 -91.7727
rradius 32.6458
rwrist -17.0353
rhand -17.2388 1.914
rfingers 7.12502
rthumb 9.00495 -27.8738
lclavicle -1.1778e-014 -1.19271e-014
lhumerus -28.2116 1.79643 86.0718
lradius 28.5727
lwrist -4.13825
lhand -18.6151 12.8437
lfingers 7.12502
lthumb 7.67667 42.6843
rfemur -7.72247 19.6187 27.0365
rtibia 29.5122
rfoot -25.8585 -25.4707
rtoes -28.545
lfemur -7.55094 -19.713 -23.2498
ltibia 32.5428
lfoot -28.2394 25.9594
ltoes -1.03129
573
root 20.1899 15.2679 -3.1701 305.449 87.2622 -52.4869
lowerback 3.18165 1.7631 -0.296118
upperback 2.68818 2.38775 -0.415862
thorax 0.979199 1.21166 -0.313611
lowerneck -4.20569 5.76602 10.635
upperneck 1.32405 7.35102 -7.861
head 1.75885 3.60341 -3.83048
rclavicle 1.25234e-014 5.96354e-015
rhumerus -36.7304 4.04914 -91.7772
rradius 32.7322
rwrist -17.0595
rhand -17.2382 1.89303
rfingers 7.12502
rthumb 9.00552 -27.8948
lclavicle 1.25234e-014 5.96354e-015
lhumerus -28.1875 1.53837 86.1611
lradius 28.4293
lwrist -4.08463
lhand -18.69 12.8607
lfingers 7.12502
lthumb 7.60437 42.7039
rfemur -7.73357 19.6887 27.0381
rtibia 29.5139
rfoot -25.8805 -25.4872
rtoes -28.5728
lfemur -7.55317 -19.6823 -23.2467
ltibia 32.5351
lfoot -28.3166 25.9267
ltoes -0.699465
574
root 20.1927 15.2684 -3.16949 305.689 87.2174 -52.2782
lowerback 3.14289 1.7705 -0.248799
upperback 2.67012 2.39805 -0.409283
thorax 0.983968 1.21715 -0.332547
lowerneck -4.11781 5.83839 10.6289
upperneck 1.34105 7.45569 -7.80935
head 1.75697 3.65809 -3.81101
rclavicle -4.17448e-015 -8.74653e-015
rhumerus -36.7848 4.00785 -91.7896
rradius 32.8012
rwrist -17.103
rhand -17.2324 1.90118
rfingers 7.12502
rthumb 9.01109 -27.8864
lclavicle -4.17448e-015 -8.74653e-015
lhumerus -28.1701 1.37967 86.208
lradius 28.2858
lwrist -4.07862
lhand -18.7334 12.9171
lfingers 7.12502
lthumb 7.56249 42.7619
rfemur -7.74732 19.7475 27.0724
rtibia 29.4962
rfoot -25.8876 -25.4925
rtoes -28.5448
lfemur -7.58218 -19.6432 -23.1984
ltibia 32.5466
lfoot -28.4107 25.8722
ltoes -0.297339
575
root 20.1951 15.2689 -3.16918 305.362 87.1688 -52.6468
lowerback 3.08971 1.77049 -0.177317
upperback 2.65708 2.39904 -0.397157
thorax 1.00267 1.21828 -0.358467
lowerneck -4.08861 5.90977 10.6392
upperneck 1.40268 7.55478 -7.78065
head 1.77882 3.70883 -3.79897
rclavicle -5.61567e-015 9.14409e-015
rhumerus -36.8194 3.97738 -91.8019
rradius 32.8585
rwrist -17.1444
rhand -17.2075 1.92009
rfingers 7.12502
rthumb 9.03515 -27.8664
lclavicle -5.61567e-015 9.14409e-015
lhumerus -28.1553 1.3035 86.2208
lradius 28.1395
lwrist -4.11198
lhand -18.7476 12.999
lfingers 7.12502
lthumb 7.5488 42.8443
rfemur -7.76646 19.7759 27.1195
rtibia 29.4661
rfoot -25.8877 -25.4826
rtoes -28.478
lfemur -7.63344 -19.6087 -23.1247
ltibia 32.5706
lfoot -28.4988 25.8073
ltoes 0.055002
576
root 20.1971 15.2695 -3.16922 304.701 87.1448 -53.3615
lowerback 3.0165 1.7651 -0.103679
upperback 2.65058 2.39304 -0.388731
thorax 1.03949 1.21603 -0.388384
lowerneck -4.10235 5.97702 10.6531
upperneck 1.49225 7.64555 -7.76934
head 1.816 3.75452 -3.79142
rclavicle -1.4064e-014 8.34896e-015
rhumerus -36.8225 3.97523 -91.8195
rradius 32.8814
rwrist -17.2124
rhand -17.1713 1.93951
rfingers 7.12502
rthumb 9.07002 -27.8455
lclavicle -1.4064e-014 8.34896e-015
lhumerus -28.1347 1.29354 86.2099
lradius 27.98
lwrist -4.19152
lhand -18.7518 13.0655
lfingers 7.12502
lthumb 7.54477 42.9109
rfemur -7.80017 19.7622 27.1461
rtibia 29.4429
rfoot -25.8951 -25.4561
rtoes -28.3935
lfemur -7.69696 -19.5917 -23.0595
ltibia 32.589
lfoot -28.5622 25.74
ltoes 0.298537
577
root 20.1993 15.27 -3.16945 304.041 87.1677 -54.0796
lowerback 2.92648 1.75794 -0.0562961
upperback 2.65129 2.38439 -0.392055
thorax 1.09253 1.21227 -0.414882
lowerneck -4.13477 6.036 10.66
upperneck 1.58505 7.72429 -7.76775
head 1.85622 3.79368 -3.78564
rclavicle -5.46658e-015 0
rhumerus -36.8077 3.95261 -91.824
rradius 32.8923
rwrist -17.2664
rhand -17.1226 1.94164
rfingers 7.12502
rthumb 9.11701 -27.8413
lclavicle -5.46658e-015 0
lhumerus -28.1002 1.35363 86.1785
lradius 27.7959
lwrist -4.34769
lhand -18.7447 13.0993
lfingers 7.12502
lthumb 7.55161 42.9445
rfemur -7.8533 19.71 27.124
rtibia 29.4483
rfoot -25.9185 -25.4194
rtoes -28.3307
lfemur -7.75422 -19.5944 -23.0374
ltibia 32.5818
lfoot -28.5779 25.6857
ltoes 0.35325
578
root 20.2017 15.2703 -3.16969 303.736 87.2457 -54.4359
lowerback 2.83823 1.75337 -0.0550536
upperback 2.65415 2.37855 -0.413494
thorax 1.1457 1.20946 -0.434244
lowerneck -4.15939 6.08404 10.6578
upperneck 1.67157 7.78938 -7.76417
head 1.89164 3.82613 -3.77881
rclavicle -2.66868e-014 5.96354e-015
rhumerus -36.795 3.89158 -91.8151
rradius 32.8961
rwrist -17.296
rhand -17.079 1.94213
rfingers 7.12502
rthumb 9.1591 -27.839
lclavicle -2.66868e-014 5.96354e-015
lhumerus -28.0589 1.46648 86.1276
lradius 27.583
lwrist -4.58126
lhand -18.7094 13.1164
lfingers 7.12502
lthumb 7.58567 42.9603
rfemur -7.9198 19.6296 27.0405
rtibia 29.4965
rfoot -25.9557 -25.3799
rtoes -28.3125
lfemur -7.78136 -19.6124 -23.0824
ltibia 32.5357
lfoot -28.5269 25.6655
ltoes 0.182082
579
root 20.2042 15.2704 -3.16983 303.956 87.377 -54.2506
lowerback 2.7736 1.75316 -0.10588
upperback 2.64942 2.37774 -0.455914
thorax 1.17673 1.20856 -0.447081
lowerneck -4.15274 6.11668 10.6541
upperneck 1.7477 7.83651 -7.75556
head 1.91701 3.85025 -3.77222
rclavicle -1.26725e-014 1.59028e-015
rhumerus -36.8029 3.7968 -91.8045
rradius 32.8855
rwrist -17.3054
rhand -17.0752 1.9622
rfingers 7.12502
rthumb 9.16282 -27.8187
lclavicle -1.26725e-014 1.59028e-015
lhumerus -28.0287 1.62124 86.0536
lradius 27.3429
lwrist -4.88015
lhand -18.6587 13.1034
lfingers 7.12502
lthumb 7.63456 42.9456
rfemur -7.99098 19.5295 26.8972
rtibia 29.5879
rfoot -26.0018 -25.3449
rtoes -28.3437
lfemur -7.76795 -19.6348 -23.1989
ltibia 32.4496
lfoot -28.4111 25.6784
ltoes -0.179776
580
root 20.2067 15.2703 -3.16976 304.665 87.5445 -53.557
lowerback 2.74574 1.7557 -0.199131
upperback 2.6296 2.37977 -0.5147
thorax 1.17072 1.20854 -0.454631
lowerneck -4.10549 6.12839 10.664
upperneck 1.81331 7.85868 -7.75041
head 1.93107 3.86269 -3.77151
rclavicle 9.88954e-015 1.19271e-015
rhumerus -36.84 3.68755 -91.8052
rradius 32.8472
rwrist -17.2939
rhand -17.1408 2.02533
rfingers 7.12502
rthumb 9.09945 -27.7584
lclavicle 9.88954e-015 1.19271e-015
lhumerus -28.0258 1.81415 85.9527
lradius 27.0826
lwrist -5.21831
lhand -18.614 13.0803
lfingers 7.12502
lthumb 7.67775 42.921
rfemur -8.05847 19.4247 26.7151
rtibia 29.708
rfoot -26.0472 -25.322
rtoes -28.4279
lfemur -7.72042 -19.6517 -23.3662
ltibia 32.3361
lfoot -28.2344 25.7211
ltoes -0.679013
